#!OML:ASF I:\Actors\actors\Patient Classification 2\Patient 1\Session 1\actor1.ASF
:FULLY-SPECIFIED
:DEGREES
646
root -0.324542 18.8504 3.79584 14.8185 -2.68761 -2.61199
lowerback 43.3698 0.753151 -6.75379
upperback 8.73265 -2.45131 -2.93229
thorax -10.4639 -0.971745 1.36557
lowerneck -26.6727 1.70743 5.20858
upperneck 22.8286 -0.832415 3.72221
head 11.9553 0.613265 0.403473
rclavicle -3.02153e-014 -2.38542e-015
rhumerus 35.7689 38.377 -58.0753
rradius 79.6858
rwrist -27.3275
rhand -31.2816 -23.3933
rfingers 7.12502
rthumb -4.5551 306.676
lclavicle -3.02153e-014 -2.38542e-015
lhumerus 22.1625 -25.6434 72.4975
lradius 60.147
lwrist 27.2139
lhand -29.9691 -68.6635
lfingers 7.12502
lthumb -3.28764 -38.7091
rfemur 0 0 0
rtibia 0
rfoot 0 0
rtoes 0
lfemur -30.2568 4.58198 -12.5346
ltibia 27.8387
lfoot -13.5815 8.93048
ltoes -55.6414
647
root -0.325109 18.851 3.79048 14.949 -2.71645 -2.58672
lowerback 43.3896 0.769355 -6.767
upperback 8.81401 -2.4387 -2.96891
thorax -10.3779 -0.969487 1.32581
lowerneck -26.6996 1.69386 5.1815
upperneck 22.8713 -0.87685 3.83196
head 11.9785 0.607763 0.4422
rclavicle 7.95139e-015 2.38542e-014
rhumerus 35.7627 38.202 -58.2266
rradius 79.6891
rwrist -27.499
rhand -31.2504 -23.3919
rfingers 7.12502
rthumb -4.52497 306.676
lclavicle 7.95139e-015 2.38542e-014
lhumerus 22.4572 -25.6847 72.2587
lradius 59.9146
lwrist 27.0803
lhand -29.936 -68.5251
lfingers 7.12502
lthumb -3.25566 -38.5702
rfemur 0 0 0
rtibia 0
rfoot 0 0
rtoes 0
lfemur -30.408 4.61026 -12.5789
ltibia 27.8194
lfoot -13.526 8.9671
ltoes -55.7502
648
root -0.324869 18.8511 3.78505 15.0512 -2.7419 -2.57776
lowerback 43.4163 0.794958 -6.80891
upperback 8.86083 -2.42225 -2.94934
thorax -10.3292 -0.964263 1.36012
lowerneck -26.6273 1.7176 5.20189
upperneck 22.8694 -0.832755 3.7859
head 11.9638 0.621775 0.428548
rclavicle -1.90833e-014 -2.38542e-014
rhumerus 35.7948 38.1194 -58.2173
rradius 79.6616
rwrist -27.5124
rhand -31.3376 -23.3592
rfingers 7.12502
rthumb -4.60916 306.711
lclavicle -1.90833e-014 -2.38542e-014
lhumerus 22.5613 -25.614 72.1449
lradius 60.125
lwrist 27.1775
lhand -29.6807 -68.1461
lfingers 7.12502
lthumb -3.0091 -38.1876
rfemur 0 0 0
rtibia 0
rfoot 0 0
rtoes 0
lfemur -30.518 4.57734 -12.5899
ltibia 27.7781
lfoot -13.4904 9.05673
ltoes -55.8088
649
root -0.323966 18.8515 3.7798 15.1253 -2.7568 -2.58665
lowerback 43.4829 0.811113 -6.84537
upperback 8.8861 -2.41693 -2.90916
thorax -10.3155 -0.962808 1.41913
lowerneck -26.6045 1.77323 5.29864
upperneck 22.8614 -0.741033 3.60977
head 11.9546 0.646333 0.36219
rclavicle 1.43125e-014 2.06736e-014
rhumerus 35.9039 38.0972 -58.0585
rradius 79.6448
rwrist -27.5113
rhand -31.499 -23.2343
rfingers 7.12502
rthumb -4.76495 306.839
lclavicle 1.43125e-014 2.06736e-014
lhumerus 22.5535 -25.5458 72.0421
lradius 60.2743
lwrist 27.2429
lhand -28.9644 -67.4722
lfingers 7.12502
lthumb -2.31732 -37.505
rfemur 0 0 0
rtibia 0
rfoot 0 0
rtoes 0
lfemur -30.5804 4.47064 -12.553
ltibia 27.7287
lfoot -13.5071 9.1639
ltoes -55.7283
650
root -0.323708 18.8524 3.77565 15.1741 -2.77659 -2.57695
lowerback 43.5643 0.841497 -6.86805
upperback 8.90303 -2.39331 -2.88793
thorax -10.3183 -0.952274 1.44289
lowerneck -26.6956 1.74309 5.18767
upperneck 22.9398 -0.786126 3.73591
head 12.0033 0.637034 0.42159
rclavicle 1.74931e-014 2.38542e-014
rhumerus 35.9507 38.0324 -57.8758
rradius 79.7284
rwrist -27.4763
rhand -31.5036 -23.2869
rfingers 7.12502
rthumb -4.76939 306.787
lclavicle 1.74931e-014 2.38542e-014
lhumerus 22.5371 -25.5714 72.0006
lradius 60.3722
lwrist 27.256
lhand -28.5996 -67.0726
lfingers 7.12502
lthumb -1.96501 -37.1019
rfemur 0 0 0
rtibia 0
rfoot 0 0
rtoes 0
lfemur -30.5999 4.36032 -12.5278
ltibia 27.6815
lfoot -13.5558 9.25038
ltoes -55.5402
651
root -0.323997 18.8526 3.77196 15.2267 -2.8079 -2.54
lowerback 43.6016 0.866818 -6.87184
upperback 8.9072 -2.37236 -2.92087
thorax -10.3265 -0.941879 1.39996
lowerneck -26.734 1.66013 5.00285
upperneck 23.0315 -0.923509 4.04011
head 12.0501 0.604568 0.543817
rclavicle 1.59028e-014 1.19271e-014
rhumerus 35.8955 37.9531 -57.7743
rradius 79.8702
rwrist -27.4017
rhand -31.4248 -23.3578
rfingers 7.12502
rthumb -4.69337 306.714
lclavicle 1.59028e-014 1.19271e-014
lhumerus 22.5515 -25.7023 71.921
lradius 60.4039
lwrist 27.2209
lhand -28.6229 -66.9407
lfingers 7.12502
lthumb -1.98752 -36.9702
rfemur 0 0 0
rtibia 0
rfoot 0 0
rtoes 0
lfemur -30.6328 4.31648 -12.5555
ltibia 27.6413
lfoot -13.5751 9.30624
ltoes -55.4374
652
root -0.324417 18.8516 3.76917 15.2776 -2.8343 -2.50019
lowerback 43.6023 0.866326 -6.87083
upperback 8.90828 -2.38094 -2.98065
thorax -10.3279 -0.944504 1.33854
lowerneck -26.7323 1.65119 5.00484
upperneck 23.125 -0.97367 4.14739
head 12.0883 0.600051 0.57635
rclavicle -6.36111e-015 -1.19271e-014
rhumerus 35.8569 37.9175 -57.701
rradius 80.0031
rwrist -27.3656
rhand -31.475 -23.2298
rfingers 7.12502
rthumb -4.74178 306.843
lclavicle -6.36111e-015 -1.19271e-014
lhumerus 22.5587 -25.8411 71.75
lradius 60.4266
lwrist 27.1502
lhand -28.6857 -66.7657
lfingers 7.12502
lthumb -2.04818 -36.7957
rfemur 0 0 0
rtibia 0
rfoot 0 0
rtoes 0
lfemur -30.6803 4.31803 -12.6042
ltibia 27.6108
lfoot -13.5564 9.33819
ltoes -55.4483
653
root -0.324569 18.8506 3.76734 15.2836 -2.84246 -2.47957
lowerback 43.634 0.860649 -6.86085
upperback 8.90502 -2.39098 -3.01269
thorax -10.3424 -0.947815 1.30326
lowerneck -26.7333 1.6683 5.06616
upperneck 23.222 -0.979714 4.14384
head 12.1269 0.605312 0.565137
rclavicle 1.11319e-014 -3.18055e-015
rhumerus 35.8323 37.9006 -57.5821
rradius 80.1408
rwrist -27.3776
rhand -31.5972 -23.1603
rfingers 7.12502
rthumb -4.85978 306.915
lclavicle 1.11319e-014 -3.18055e-015
lhumerus 22.4865 -25.9333 71.6551
lradius 60.5231
lwrist 27.0403
lhand -28.7246 -66.7026
lfingers 7.12502
lthumb -2.08571 -36.733
rfemur 0 0 0
rtibia 0
rfoot 0 0
rtoes 0
lfemur -30.6856 4.31762 -12.6273
ltibia 27.5909
lfoot -13.5464 9.33842
ltoes -55.4595
654
root -0.325033 18.85 3.76589 15.2486 -2.83436 -2.48112
lowerback 43.678 0.854726 -6.83934
upperback 8.91118 -2.39421 -3.02632
thorax -10.3498 -0.94901 1.27897
lowerneck -26.7247 1.67247 5.10153
upperneck 23.3037 -1.00453 4.18397
head 12.1584 0.605408 0.571108
rclavicle 1.27222e-014 5.56597e-015
rhumerus 35.8516 37.881 -57.4316
rradius 80.2341
rwrist -27.4227
rhand -31.6618 -23.2573
rfingers 7.12502
rthumb -4.92217 306.82
lclavicle 1.27222e-014 5.56597e-015
lhumerus 22.3965 -26.0185 71.5988
lradius 60.6586
lwrist 26.934
lhand -28.7087 -66.662
lfingers 7.12502
lthumb -2.0704 -36.6923
rfemur 0 0 0
rtibia 0
rfoot 0 0
rtoes 0
lfemur -30.6458 4.29554 -12.6117
ltibia 27.5812
lfoot -13.5642 9.32535
ltoes -55.4283
655
root -0.325745 18.85 3.76458 15.216 -2.82274 -2.49234
lowerback 43.7007 0.845114 -6.82763
upperback 8.92751 -2.40211 -3.03045
thorax -10.3381 -0.953249 1.27179
lowerneck -26.7346 1.68487 5.11541
upperneck 23.3497 -1.00925 4.2269
head 12.1793 0.612021 0.585025
rclavicle -6.36111e-015 -3.18055e-015
rhumerus 35.9363 37.8769 -57.2932
rradius 80.2387
rwrist -27.4826
rhand -31.5845 -23.2417
rfingers 7.12502
rthumb -4.84756 306.834
lclavicle -6.36111e-015 -3.18055e-015
lhumerus 22.3698 -26.0824 71.5316
lradius 60.7343
lwrist 26.8342
lhand -28.7073 -66.5422
lfingers 7.12502
lthumb -2.06905 -36.5725
rfemur 0 0 0
rtibia 0
rfoot 0 0
rtoes 0
lfemur -30.6125 4.28492 -12.5909
ltibia 27.5773
lfoot -13.5674 9.32011
ltoes -55.3925
656
root -0.326392 18.8504 3.76397 15.1762 -2.80764 -2.51941
lowerback 43.7587 0.842601 -6.81763
upperback 8.92732 -2.40358 -3.0135
thorax -10.3546 -0.953663 1.28568
lowerneck -26.7662 1.69002 5.11482
upperneck 23.3781 -1.00388 4.21954
head 12.1963 0.614576 0.583959
rclavicle -6.36111e-015 1.03368e-014
rhumerus 35.9765 37.8805 -57.2091
rradius 80.2256
rwrist -27.5204
rhand -31.4449 -23.2766
rfingers 7.12502
rthumb -4.71278 306.796
lclavicle -6.36111e-015 1.03368e-014
lhumerus 22.3916 -26.1131 71.5262
lradius 60.7295
lwrist 26.818
lhand -28.7145 -66.4757
lfingers 7.12502
lthumb -2.07598 -36.506
rfemur 0 0 0
rtibia 0
rfoot 0 0
rtoes 0
lfemur -30.5739 4.31943 -12.5703
ltibia 27.5725
lfoot -13.5452 9.30058
ltoes -55.4325
